<?xml version="1.0" encoding="UTF-8"?>
<svg id="katman_1" data-name="katman 1" xmlns="http://www.w3.org/2000/svg" viewBox="0 0 426.74 470.16">
  <defs>
    <style>
      .cls-1, .cls-2, .cls-3 {
        fill: #0b91b2;
      }

      .cls-4, .cls-5 {
        fill: #fff;
      }

      .cls-6, .cls-7 {
        fill: #175e75;
      }

      .cls-2, .cls-5 {
        stroke-width: 3.62px;
      }

      .cls-2, .cls-5, .cls-8, .cls-7, .cls-9 {
        stroke-miterlimit: 10;
      }

      .cls-2, .cls-8, .cls-7 {
        stroke: #fff;
      }

      .cls-5, .cls-9 {
        stroke: #175e75;
      }

      .cls-10 {
        letter-spacing: .05em;
      }

      .cls-8 {
        stroke-width: 2.88px;
      }

      .cls-8, .cls-9 {
        fill: none;
      }

      .cls-3 {
        font-family: LEMONMILK-Medium, 'LEMON MILK';
        font-size: 71.35px;
        font-weight: 500;
      }

      .cls-11 {
        letter-spacing: -.05em;
      }

      .cls-7 {
        stroke-width: 1.65px;
      }

      .cls-9 {
        stroke-width: 15.36px;
      }
    </style>
  </defs>
  <text class="cls-3" transform="translate(101.6 450.41)"><tspan class="cls-11" x="0" y="0">T</tspan><tspan class="cls-10" x="38.48" y="0">ARA</tspan></text>
  <g>
    <rect class="cls-9" x="131.1" y="7.68" width="160.4" height="169.62" rx="29.16" ry="29.16"/>
    <path class="cls-1" d="m333,106.27H101.57c-15.01,0-27.17,12.17-27.17,27.17v203.77c0,15.01,12.17,27.17,27.17,27.17h138.09c5.28-.58,10.58-1.15,15.88-1.69,3.14-.32,5.67.37,7.6,1.69h69.85c15.01,0,27.17-12.17,27.17-27.17v-203.77c0-15.01-12.17-27.17-27.17-27.17Z"/>
  </g>
  <g>
    <path class="cls-5" d="m194.42,122.57c-2.89-7.75-11.51-11.69-19.26-8.79L11.54,175.03c-7.74,2.9-11.67,11.53-8.78,19.29l63.27,169.53c18.3-.19,36.6-.75,54.83,1.23,2.78.3,4.82,1.7,6.12,3.55h11.65c.42,0,.81.03,1.19.08,1.02-.11,2.03-.17,3.05-.26,1.11-.63,2.46-1.01,4.05-1.01,28.73-.01,57.47-.32,86.2-.25,14.57-.81,29.15-1.57,43.73-2.03,2.52-.43,5.01-.95,7.48-1.67l-89.91-240.94Z"/>
    <path class="cls-7" d="m119.85,146.72l-45.67,16.71c-1.56.57-2.36,2.3-1.79,3.86l.84,2.31c.57,1.56,2.3,2.37,3.86,1.8l45.67-16.71c1.56-.57,2.36-2.3,1.79-3.86l-.84-2.31c-.57-1.56-2.3-2.37-3.86-1.8Z"/>
    <ellipse class="cls-7" cx="65.92" cy="170.96" rx="4.24" ry="4.24"/>
    <path class="cls-2" d="m186.79,141.22L20.96,204.7l60.67,158.96c13.09-.12,26.18,0,39.22,1.41,2.78.3,4.82,1.7,6.12,3.55h11.65c.42,0,.82.03,1.2.08,1.01-.11,2.02-.17,3.03-.25,1.11-.63,2.46-1.01,4.06-1.01,42.1-.02,84.21-.67,126.29.2l-86.43-226.43Z"/>
  </g>
  <rect class="cls-4" x="285.51" y="164.27" width="26.06" height="26.06"/>
  <rect class="cls-4" x="344.18" y="123.42" width="26.06" height="26.06"/>
  <rect class="cls-4" x="328.19" y="171.39" width="37.89" height="37.89"/>
  <rect class="cls-4" x="291.5" y="228.84" width="37.89" height="37.89"/>
  <rect class="cls-4" x="329.39" y="279.67" width="49.73" height="37.89"/>
  <rect class="cls-4" x="297.41" y="313.52" width="26.06" height="26.06"/>
  <rect class="cls-4" x="344.18" y="226.19" width="26.06" height="26.06"/>
  <rect class="cls-6" x="19.41" y="344.98" width="383.79" height="28.92"/>
  <g>
    <g>
      <line class="cls-8" x1="71.29" y1="237.05" x2="101.62" y2="224.98"/>
      <line class="cls-8" x1="72.01" y1="235.48" x2="84.73" y2="265.55"/>
    </g>
    <g>
      <line class="cls-8" x1="110.71" y1="329.68" x2="140.55" y2="316.44"/>
      <line class="cls-8" x1="112.34" y1="330.26" x2="99.73" y2="300.14"/>
    </g>
    <g>
      <line class="cls-8" x1="207.52" y1="285.82" x2="177.75" y2="299.24"/>
      <line class="cls-8" x1="206.86" y1="287.43" x2="192.82" y2="257.95"/>
    </g>
    <g>
      <line class="cls-8" x1="165.82" y1="196.44" x2="135.92" y2="209.55"/>
      <line class="cls-8" x1="164.2" y1="195.85" x2="176.66" y2="226.03"/>
    </g>
  </g>
  <rect class="cls-4" x="99.7" y="238.35" width="23.82" height="23.82" transform="translate(-91.38 66.19) rotate(-23.76)"/>
  <rect class="cls-1" x="369.31" y="124.77" width="26.06" height="26.06"/>
  <rect class="cls-1" x="389.04" y="173.48" width="37.7" height="37.7"/>
  <rect class="cls-1" x="370.19" y="287.87" width="37.7" height="37.7"/>
  <rect class="cls-1" x="382.34" y="225.2" width="26.06" height="26.06"/>
  <rect class="cls-4" x="137.19" y="219.48" width="23.82" height="23.82" transform="translate(-80.6 79.7) rotate(-23.76)"/>
  <rect class="cls-4" x="117.92" y="280.66" width="23.82" height="23.82" transform="translate(-106.89 77.12) rotate(-23.76)"/>
  <rect class="cls-6" x="156.42" y="261.89" width="23.82" height="23.82" transform="translate(-96.06 91.04) rotate(-23.76)"/>
</svg>